<svg id="Capa_1" enable-background="new 0 0 512 512" height="512" viewBox="0 0 512 512" width="512" xmlns="http://www.w3.org/2000/svg"><g><path d="m448.004 110.87c0 6.04-1.12 11.81-3.15 17.13l-188.7 31.71-189.01-31.71c-2.03-5.32-3.14-11.09-3.14-17.13 0-26.51 21.49-48 48-48 0-26.51 21.49-48 48-48 8.77 0 16.99 2.37 24.07 6.48 8.61-12.87 23.28-21.35 39.93-21.35 12.29 0 23.5 4.63 32 12.23.05-.04.1-.09.15-.13 8.47-7.52 19.62-12.1 31.85-12.1 16.65 0 31.31 8.48 39.92 21.35 7.08-4.11 15.3-6.48 24.08-6.48 26.51 0 48 21.49 48 48 26.51 0 48 21.49 48 48z" fill="#ffdb2e"/><path d="m448.004 110.87c0 6.04-1.12 11.81-3.15 17.13l-188.7 31.71v-147.61c8.47-7.52 19.62-12.1 31.85-12.1 16.65 0 31.31 8.48 39.92 21.35 7.08-4.11 15.3-6.48 24.08-6.48 26.51 0 48 21.49 48 48 26.51 0 48 21.49 48 48z" fill="#ffb74a"/><path d="m210.875 60.25h30v30h-30z" fill="#fff89a"/><path d="m150.625 72.25h30v30h-30z" fill="#fff89a"/><path d="m271.125 60.25h30v30h-30z" fill="#ffdb2e"/><path d="m331.375 72.25h30v30h-30z" fill="#ffdb2e"/><path d="m434.834 376.5-18.83 135.5h-326.98l-16.37-135.5 183.35-20.34.15.02z" fill="#273c67"/><path d="m434.834 376.5-18.83 135.5h-159.85v-155.82z" fill="#0e0b4e"/><path d="m150.624 421.75h210.75v30h-210.75z" fill="#ff387c"/><path d="m256.154 421.75h105.22v30h-105.22z" fill="#be00a4"/><path d="m124.535 128-.745 124.25 19.255 124.25h74.1l6.808-124.25-13.192-124.25z" fill="#fff5f5"/><path d="m42.622 128 30.029 248.5h70.394l-18.51-248.5z" fill="#ff387c"/><path d="m301.49 128-13.672 124.25 6.328 124.25h72.152l20.646-124.25.647-124.25z" fill="#ece6f2"/><path d="m301.494 128-7.35 248.5h-77l-6.38-248.5z" fill="#ff387c"/><g fill="#be00a4"><path d="m301.494 128-7.35 248.5h-37.99v-248.5z"/><path d="m469.378 128h-81.787l-21.293 248.5h68.537z"/></g></g></svg>